
        <svg xmlns="http://www.w3.org/2000/svg" xmlns:xlink="http://www.w3.org/1999/xlink" version="1.1" width="3187.5" 
        height="890.6244107267563" viewBox="0 0 3187.5 890.6244107267563">
			
			<g transform="scale(9.375) translate(10, 10)">
				<defs id="SvgjsDefs1443"><linearGradient id="SvgjsLinearGradient1448"><stop id="SvgjsStop1449" stop-color="#8f5e25" offset="0"></stop><stop id="SvgjsStop1450" stop-color="#fbf4a1" offset="0.5"></stop><stop id="SvgjsStop1451" stop-color="#8f5e25" offset="1"></stop></linearGradient><linearGradient id="SvgjsLinearGradient1452"><stop id="SvgjsStop1453" stop-color="#8f5e25" offset="0"></stop><stop id="SvgjsStop1454" stop-color="#fbf4a1" offset="0.5"></stop><stop id="SvgjsStop1455" stop-color="#8f5e25" offset="1"></stop></linearGradient></defs><g id="SvgjsG1444" featureKey="symbolFeature-0" transform="matrix(1.136363734883719,0,0,1.136363734883719,-6.8181872860464,-19.31825285116134)" fill="url(#SvgjsLinearGradient1448)"><g xmlns="http://www.w3.org/2000/svg" transform="translate(0,-952.36218)"><path style="text-indent:0;text-transform:none;direction:ltr;block-progression:tb;baseline-shift:baseline;color:;enable-background:accumulate;" d="m 50.000002,969.36224 c -3.854,0 -7,3.14583 -7,7 0,2.16797 1.0056,4.12035 2.5625,5.40625 l -12.9375,20.31251 -17.0625,-7.68748 c 0.2791,-0.622 0.4375,-1.3086 0.4375,-2.0313 0,-2.74956 -2.2504,-4.99998 -5,-4.99998 -2.7495995,0 -4.9999995,2.25042 -4.9999995,4.99998 0,2.1206 1.3448,3.9329 3.2188,4.6563 l 11.7811995,27.49988 0,9.8437 c 10e-5,0.5236 0.4764,0.9999 1,1 l 56.000001,0 c 0.5236,-10e-5 0.9999,-0.4764 1,-1 l 0,-9.8437 11.7812,-27.49988 c 1.873994,-0.7234 3.218795,-2.5357 3.218795,-4.6563 0,-2.74956 -2.250395,-4.99998 -4.999995,-4.99998 -2.7496,0 -5,2.25042 -5,4.99998 0,0.7227 0.1584,1.4093 0.4375,2.0313 l -17.0625,7.68748 -12.9375,-20.31251 c 1.5569,-1.28591 2.5625,-3.2383 2.5625,-5.40625 0,-3.85413 -3.1459,-7 -7,-7 z m 0,2 c 2.7733,0 5,2.22677 5,5 0,2.77323 -2.2267,5 -5,5 -2.773,0 -5,-2.22681 -5,-5 0,-2.77319 2.227,-5 5,-5 z m -2.7188,11.4375 c 0.837,0.35514 1.7553,0.5625 2.7188,0.5625 0.963501,0 1.8818,-0.20735 2.7188,-0.5625 l 13.437401,21.09376 c 0.2552,0.3993 0.8171,0.5679 1.25,0.375 l 18.25,-8.21878 c 0.7707,0.7008 1.7549,1.1698 2.8438,1.2813 l -11.1562,26.03118 -54.6876,0 -11.1562,-26.03118 c 1.0889,-0.1115 2.0731,-0.5805 2.8438,-1.2813 l 18.25,8.21878 c 0.432899,0.1929 0.9948,0.024 1.25,-0.375 z m -36.2812,6.5625 c 1.6686,0 3,1.33138 3,2.99998 0,1.6687 -1.3314,3 -3,3 -1.6685995,0 -2.9999995,-1.3313 -2.9999995,-3 0,-1.6686 1.3314,-2.99998 2.9999995,-2.99998 z m 78.000001,0 c 1.6686,0 3,1.33138 3,2.99998 0,1.6687 -1.3314,3 -3,3 -1.6686,0 -3,-1.3313 -3,-3 0,-1.6686 1.3314,-2.99998 3,-2.99998 z m -39,14.99996 c -3.3018,0 -6,2.6981 -6,6 0,3.3019 2.6982,6 6,6 3.3019,0 6,-2.6981 6,-6 0,-3.3018 -2.6981,-6 -6,-6 z m 0,2 c 2.2209,0 4,1.7791 4,4 0,2.221 -1.7791,4 -4,4 -2.2208,0 -4,-1.7791 -4,-4 0,-2.2209 1.7792,-4 4,-4 z m -27,19 54,0 0,7.9999 -54,0 z" fill="url(#SvgjsLinearGradient1448)" fill-opacity="1" stroke="none" marker="none" visibility="visible" display="inline" overflow="visible"></path></g></g><g id="SvgjsG1445" featureKey="nameFeature-0" transform="matrix(1.5179114172596877,0,0,1.5179114172596877,118.54280353393384,-1.3326750837837942)" fill="url(#SvgjsLinearGradient1452)"><path d="M12.6 10.760000000000002 c3.4933 0 6.2732 0.80004 8.34 2.4 s3.1 3.8667 3.1 6.8 l-6.08 0 c-0.08 -1.44 -0.56668 -2.52 -1.46 -3.24 s-2.2733 -1.08 -4.14 -1.08 c-1.3067 0 -2.36 0.28668 -3.16 0.86 s-1.2 1.3666 -1.2 2.38 c0 0.82668 0.24668 1.4267 0.74 1.8 s1.1933 0.70664 2.1 0.99996 s2.4934 0.72 4.76 1.28 c2.3733 0.58668 4.2 1.2267 5.48 1.92 s2.2533 1.58 2.92 2.66 s1 2.4067 1 3.98 c0 1.8133 -0.48 3.4266 -1.44 4.84 s-2.36 2.4866 -4.2 3.22 s-3.92 1.1 -6.24 1.1 c-3.5467 0 -6.46 -0.88668 -8.74 -2.66 s-3.42 -4.2068 -3.42 -7.3 l0 -0.2 l6.08 0 c0 1.68 0.57332 2.98 1.72 3.9 s2.6667 1.38 4.56 1.38 c1.68 0 3.0333 -0.3 4.06 -0.9 s1.54 -1.4867 1.54 -2.66 c0 -0.77332 -0.28 -1.4266 -0.84 -1.96 s-1.3067 -0.96664 -2.24 -1.3 s-2.5066 -0.75332 -4.72 -1.26 c-2.56 -0.64 -4.4268 -1.32 -5.6 -2.04 s-2.0666 -1.5933 -2.68 -2.62 s-0.92 -2.26 -0.92 -3.7 c0 -1.7867 0.51332 -3.3467 1.54 -4.68 s2.3667 -2.32 4.02 -2.96 s3.36 -0.96 5.12 -0.96 z M40.04 18.76 c3.0133 0 5.0268 1.1466 6.04 3.44 c1.5733 -2.2933 3.6666 -3.44 6.28 -3.44 c2.5867 0 4.4868 0.65332 5.7 1.96 s1.82 3.1067 1.82 5.4 l0 13.88 l-5.68 0 l0 -11.96 c0 -1.8133 -0.27332 -3.0666 -0.82 -3.76 s-1.4334 -1.04 -2.66 -1.04 c-2.5333 0 -3.8 1.7333 -3.8 5.2 l0 11.56 l-5.68 0 l0 -12.2 c0 -1.76 -0.28 -2.96 -0.84 -3.6 s-1.4267 -0.96 -2.6 -0.96 c-1.0933 0 -2.0066 0.43332 -2.74 1.3 s-1.1 2.0067 -1.1 3.42 l0 12.04 l-5.68 0 l0 -20.68 l5.36 0 l0 2.8 l0.08 0 c1.5733 -2.24 3.68 -3.36 6.32 -3.36 z M70.2 11.440000000000001 l0 4.68 l-5.68 0 l0 -4.68 l5.68 0 z M70.2 19.32 l0 20.68 l-5.68 0 l0 -20.68 l5.68 0 z M80.52000000000001 11.440000000000001 l0 28.56 l-5.68 0 l0 -28.56 l5.68 0 z M94.56 18.76 c1.9467 0 3.6801 0.45328 5.2 1.36 s2.7133 2.22 3.58 3.94 s1.3 3.7 1.3 5.94 c0 0.21332 -0.01332 0.56 -0.04 1.04 l-14.92 0 c0.05332 1.6533 0.48664 2.94 1.3 3.86 s2.06 1.38 3.74 1.38 c1.04 0 1.9933 -0.26 2.86 -0.78 s1.42 -1.1533 1.66 -1.9 l5 0 c-1.4667 4.64 -4.6932 6.96 -9.68 6.96 c-1.8933 -0.02668 -3.6466 -0.44 -5.26 -1.24 s-2.9 -2.0467 -3.86 -3.74 s-1.44 -3.66 -1.44 -5.9 c0 -2.1067 0.48668 -4.0268 1.46 -5.76 s2.2666 -3.0266 3.88 -3.88 s3.3533 -1.28 5.22 -1.28 z M98.92 27.439999999999998 c-0.26668 -1.5467 -0.76 -2.6667 -1.48 -3.36 s-1.7467 -1.04 -3.08 -1.04 c-1.3867 0 -2.48 0.39332 -3.28 1.18 s-1.2667 1.86 -1.4 3.22 l9.24 0 z M113.64000000000001 11.440000000000001 l5.6 9.12 l5.8 -9.12 l6.88 0 l-9.16 13.64 l9.96 14.92 l-7.48 0 l-6.24 -9.88 l-6.36 9.88 l-7.08 0 l10 -14.96 l-9.2 -13.6 l7.28 0 z"></path></g>
			</g>
		</svg>
	